/* XPM */
static char * terminal_32x32_xpm[] = {
"32 32 22 1",
" 	c None",
".	c #3F3F3F",
"+	c #404040",
"@	c #474747",
"#	c #494949",
"$	c #4F4F4F",
"%	c #505050",
"&	c #575757",
"*	c #5C5C5C",
"=	c #5F5F5F",
"-	c #606060",
";	c #616161",
">	c #A3A3A3",
",	c #A4A4A4",
"'	c #A6A6A6",
")	c #ABABAB",
"!	c #ADADAD",
"~	c #F6F6F6",
"{	c #F8F8F8",
"]	c #FBFBFB",
"^	c #FCFCFC",
"/	c #FFFFFF",
"                                ",
"                                ",
"                                ",
"                                ",
"   --------------------------   ",
"  &%$$$$$$$$$$$$$$$$$$$$$$$$%&  ",
"  %$$$$$$$$$$$$$$$$$$$$$$$$$$%  ",
"  $$$$/$$$$$$$$$$$$$$$$$$$$$$$  ",
"  $$!]/{,$$$$$$$$$$$$$$$$$$$$$  ",
"  $$~*/+@$$$$$$$$$$$$$$$$$$$$$  ",
"  $$,]/])$$$$$$$$$$$$$$$$$$$$$  ",
"  $$@+/*~$$$$$$$$$$$$$$$$$$$$$  ",
"  $$'^/]>$$$$$$$$$$$$$$$$$$$$$  ",
"  $$@+/+@$$//////$$$$$$$$$$$$$  ",
"  $$$$.$$$$......$$$$$$$$$$$$$  ",
"  $$$$$$$$$$$$$$$$$$$$$$$$$$$$  ",
"  $$$$$$$$$$$$$$$$$$$$$$$$$$$$  ",
"  $$$$$$$$$$$$$$$$$$$$$$$$$$$$  ",
"  $$$$$$$$$$$$$$$$$$$$$$$$$$$$  ",
"  $$$$$$$$$$$$$$$$$$$$$$$$$$$$  ",
"  $$$$$$$$$$$$$$$$$$$$$$$$$$$$  ",
"  $$$$$$$$$$$$$$$$$$$$$$$$$$$$  ",
"  $$$$$$$$$$$$$$$$$$$$$$$$$$$$  ",
"  $$$$$$$$$$$$$$$$$$$$$$$$$$$$  ",
"  $$$$$$$$$$$$$$$$$$$$$$$$$$$$  ",
"  $$$$$$$$$$$$$$$$$$$$$$$$$$$$  ",
"  &%$$$$$$$$$$$$$$$$$$$$$$$$%&  ",
"   --------------------------   ",
"                                ",
"                                ",
"                                ",
"                                "};
